<svg width="1024" height="1024" viewBox="0 0 1024 1024" fill="none" xmlns="http://www.w3.org/2000/svg">
<rect width="1024" height="1024" fill="url(#paint0_linear_25_11)" style=""/>
<g filter="url(#filter0_di_25_11)">
<path d="M739.918 242.945C770.777 242.945 793.824 250.562 809.059 265.797C824.293 281.031 831.91 303.688 831.91 333.766V434.011L769.646 371.836C764.69 366.882 758.413 364.371 751.447 364.371C744.509 364.371 738.3 366.93 733.39 371.841C729.987 375.243 727.736 379.267 726.659 383.71C723.515 381.274 719.829 380.055 715.602 380.055H555.641C550.367 380.055 545.973 381.812 542.457 385.328C538.941 388.648 537.184 392.848 537.184 397.926C537.184 403.004 538.941 407.301 542.457 410.816C545.973 414.332 550.367 416.09 555.641 416.09H681.273C682.067 418.09 683.122 419.984 684.438 421.751C683.64 421.682 682.832 421.646 682.014 421.646C675.185 421.646 669.026 424.073 664.041 428.746L663.866 428.91L663.698 429.083C658.844 434.094 656.34 440.358 656.34 447.32C656.34 454.258 658.899 460.468 663.81 465.378L683.821 485.39C683.465 485.376 683.107 485.367 682.746 485.367C675.714 485.367 669.483 488.043 664.542 492.983C663.924 493.602 663.344 494.24 662.802 494.898H555.641C550.367 494.898 545.973 496.656 542.457 500.172C538.941 503.492 537.184 507.594 537.184 512.477C537.184 517.75 538.941 522.145 542.457 525.66C545.973 529.176 550.367 530.934 555.641 530.934H666.23L761.075 625.778C773.224 637.927 786.195 647.159 800.027 653.21C810.516 657.799 821.155 660.642 831.91 661.671V691.773C831.91 721.852 824.293 744.41 809.059 759.449C793.824 774.684 770.777 782.301 739.918 782.301H233.082C202.418 782.301 179.371 774.684 163.941 759.449C148.707 744.41 141.09 721.852 141.09 691.773V333.766C141.09 303.492 148.707 280.836 163.941 265.797C179.371 250.562 202.418 242.945 233.082 242.945H739.918ZM364.625 533.863C342.75 533.863 323.707 537.574 307.496 544.996C291.48 552.418 278.102 561.695 267.359 572.828C256.812 583.766 248.902 594.703 243.629 605.641C238.551 616.383 236.012 625.27 236.012 632.301C236.012 636.598 237.184 640.211 239.527 643.141C242.066 646.07 245.68 647.535 250.367 647.535H479.176C483.863 647.535 487.379 646.07 489.723 643.141C492.262 640.211 493.531 636.598 493.531 632.301C493.531 625.27 490.895 616.383 485.621 605.641C480.543 594.703 472.633 583.766 461.891 572.828C451.344 561.695 437.965 552.418 421.754 544.996C405.543 537.574 386.5 533.863 364.625 533.863ZM555.641 609.449C550.367 609.449 545.973 611.305 542.457 615.016C538.941 618.531 537.184 622.828 537.184 627.906C537.184 632.789 538.941 636.988 542.457 640.504C545.973 643.824 550.367 645.484 555.641 645.484H715.602C720.68 645.484 724.977 643.824 728.492 640.504C732.008 636.988 733.766 632.789 733.766 627.906C733.766 622.828 732.008 618.531 728.492 615.016C724.977 611.305 720.68 609.449 715.602 609.449H555.641ZM364.625 374.781C352.906 374.781 342.164 377.906 332.398 384.156C322.633 390.406 314.82 398.707 308.961 409.059C303.297 419.41 300.465 430.836 300.465 443.336C300.465 463.453 306.715 480.152 319.215 493.434C331.91 506.715 347.047 513.355 364.625 513.355C382.398 513.355 397.535 506.715 410.035 493.434C422.535 480.152 428.785 463.453 428.785 443.336C428.785 430.836 425.855 419.41 419.996 409.059C414.332 398.707 406.617 390.406 396.852 384.156C387.281 377.906 376.539 374.781 364.625 374.781Z" fill="url(#paint1_linear_25_11)" fill-opacity="0.7" style="" shape-rendering="crispEdges"/>
</g>
<path d="M911.848 620.465C901.594 630.719 890.51 638.531 878.596 643.902C866.682 649.273 854.377 652.008 841.682 652.105C829.084 652.203 816.535 649.518 804.035 644.049C791.535 638.58 779.572 630.133 768.146 618.707L671.613 522.174C668.586 519.146 667.072 515.484 667.072 511.188C667.072 506.793 668.586 503.082 671.613 500.055C674.738 496.93 678.449 495.367 682.746 495.367C687.141 495.367 690.852 496.93 693.879 500.055L755.402 561.578C755.891 559.234 756.428 556.842 757.014 554.4C757.697 551.861 758.527 549.371 759.504 546.93L670.881 458.307C667.854 455.279 666.34 451.617 666.34 447.32C666.34 442.926 667.854 439.166 670.881 436.041C674.006 433.111 677.717 431.646 682.014 431.646C686.311 431.646 690.021 433.111 693.146 436.041L774.592 517.486C775.959 515.631 777.326 513.775 778.693 511.92C780.061 510.064 781.525 508.258 783.088 506.5L694.025 417.584C690.998 414.557 689.484 410.846 689.484 406.451C689.484 402.057 690.998 398.346 694.025 395.318C697.15 392.291 700.861 390.777 705.158 390.777C709.455 390.777 713.166 392.291 716.291 395.318L806.379 485.406C808.43 484.137 810.383 482.965 812.238 481.891C814.191 480.719 816.145 479.693 818.098 478.814L740.461 401.178C737.434 398.053 735.92 394.342 735.92 390.045C735.92 385.65 737.434 381.939 740.461 378.912C743.488 375.885 747.15 374.371 751.447 374.371C755.842 374.371 759.553 375.885 762.58 378.912L865.559 481.744C858.332 490.826 853.303 499.664 850.471 508.258C847.639 516.754 846.467 524.859 846.955 532.574C847.443 540.191 849.055 547.125 851.789 553.375C854.523 559.625 857.844 564.898 861.75 569.195C863.215 570.953 865.07 571.881 867.316 571.979C869.66 571.979 871.564 571.197 873.029 569.635C874.689 568.072 875.568 566.217 875.666 564.068C875.764 561.92 875.08 559.967 873.615 558.209C867.951 551.861 864.484 544.977 863.215 537.555C861.945 530.035 862.58 522.418 865.119 514.703C867.756 506.891 872.053 499.371 878.01 492.145C879.67 490.094 880.646 488.141 880.939 486.285C881.33 484.43 880.988 482.037 879.914 479.107L864.094 434.869C861.555 427.545 860.334 421.686 860.432 417.291C860.529 412.896 862.189 409.039 865.412 405.719C868.342 402.691 871.564 401.129 875.08 401.031C878.693 400.934 881.867 402.252 884.602 404.986C886.262 406.646 888.117 409.234 890.168 412.75C892.316 416.266 894.465 420.123 896.613 424.322C898.762 428.521 900.812 432.525 902.766 436.334C906.477 443.268 909.992 450.006 913.312 456.549C916.73 463.092 919.904 469.537 922.834 475.885C925.861 482.135 928.547 488.287 930.891 494.342C933.332 500.299 935.48 506.207 937.336 512.066C944.367 532.672 945.979 551.812 942.17 569.488C938.459 587.066 928.352 604.059 911.848 620.465Z" fill="white" style="fill:white;fill-opacity:1;"/>
<defs>
<filter id="filter0_di_25_11" x="137.09" y="238.945" width="698.82" height="553.355" filterUnits="userSpaceOnUse" color-interpolation-filters="sRGB">
<feFlood flood-opacity="0" result="BackgroundImageFix"/>
<feColorMatrix in="SourceAlpha" type="matrix" values="0 0 0 0 0 0 0 0 0 0 0 0 0 0 0 0 0 0 127 0" result="hardAlpha"/>
<feOffset dy="6"/>
<feGaussianBlur stdDeviation="2"/>
<feComposite in2="hardAlpha" operator="out"/>
<feColorMatrix type="matrix" values="0 0 0 0 0 0 0 0 0 0 0 0 0 0 0 0 0 0 0.25 0"/>
<feBlend mode="plus-darker" in2="BackgroundImageFix" result="effect1_dropShadow_25_11"/>
<feBlend mode="normal" in="SourceGraphic" in2="effect1_dropShadow_25_11" result="shape"/>
<feColorMatrix in="SourceAlpha" type="matrix" values="0 0 0 0 0 0 0 0 0 0 0 0 0 0 0 0 0 0 127 0" result="hardAlpha"/>
<feOffset dy="-6"/>
<feGaussianBlur stdDeviation="2"/>
<feComposite in2="hardAlpha" operator="arithmetic" k2="-1" k3="1"/>
<feColorMatrix type="matrix" values="0 0 0 0 0 0 0 0 0 0 0 0 0 0 0 0 0 0 0.25 0"/>
<feBlend mode="normal" in2="shape" result="effect2_innerShadow_25_11"/>
</filter>
<linearGradient id="paint0_linear_25_11" x1="509.029" y1="1.06193e-05" x2="514.971" y2="1024" gradientUnits="userSpaceOnUse">
<stop stop-color="#A78BFA" style="stop-color:#A78BFA;stop-color:color(display-p3 0.6549 0.5451 0.9804);stop-opacity:1;"/>
<stop offset="0.504808" stop-color="#8B5CF6" style="stop-color:#8B5CF6;stop-color:color(display-p3 0.5451 0.3608 0.9647);stop-opacity:1;"/>
<stop offset="1" stop-color="#6D28D9" style="stop-color:#6D28D9;stop-color:color(display-p3 0.4275 0.1569 0.8510);stop-opacity:1;"/>
</linearGradient>
<linearGradient id="paint1_linear_25_11" x1="486.5" y1="242.945" x2="486.5" y2="782.301" gradientUnits="userSpaceOnUse">
<stop stop-color="white" style="stop-color:white;stop-opacity:1;"/>
<stop offset="0.5" stop-color="#F8F9FA" style="stop-color:#F8F9FA;stop-color:color(display-p3 0.9725 0.9765 0.9804);stop-opacity:1;"/>
<stop offset="1" stop-color="#E9ECEF" style="stop-color:#E9ECEF;stop-color:color(display-p3 0.9137 0.9255 0.9373);stop-opacity:1;"/>
</linearGradient>
</defs>
</svg>
